<?xml version="1.0" standalone="no"?>
<!DOCTYPE svg PUBLIC "-//W3C//DTD SVG 20010904//EN"
 "http://www.w3.org/TR/2001/REC-SVG-20010904/DTD/svg10.dtd">
<svg version="1.0" xmlns="http://www.w3.org/2000/svg"
 width="117.000000pt" height="119.000000pt" viewBox="0 0 117.000000 119.000000"
 preserveAspectRatio="xMidYMid meet">

<g transform="translate(0.000000,119.000000) scale(0.100000,-0.100000)"
fill="#000000" stroke="none">
<path d="M234 1127 c-47 -63 -47 -63 -14 -100 29 -34 30 -35 15 -70 -21 -51
-19 -125 5 -171 l19 -39 -24 -19 c-19 -15 -25 -29 -25 -57 0 -48 32 -85 89
-102 38 -11 48 -10 94 9 l52 22 -60 -55 c-32 -30 -60 -55 -61 -55 -1 0 -4 13
-7 30 -8 37 -46 50 -81 26 -24 -15 -25 -15 -35 17 -6 19 -11 42 -10 53 8 85
-17 124 -80 124 -28 0 -45 -7 -65 -26 -14 -15 -26 -33 -26 -40 0 -8 -4 -14
-10 -14 -5 0 -10 -25 -10 -55 0 -30 3 -55 8 -55 13 0 29 -89 19 -99 -7 -7 -6
-15 1 -24 7 -8 9 -16 6 -20 -13 -13 8 -47 30 -47 12 0 37 -16 57 -36 36 -37
36 -37 132 -21 15 2 27 1 27 -2 0 -4 -23 -29 -51 -56 -28 -28 -62 -72 -76 -99
l-25 -50 31 -28 c17 -15 38 -28 46 -28 8 0 15 -4 15 -10 0 -5 7 -10 15 -10 8
0 15 5 15 10 0 6 8 10 18 10 11 0 26 8 35 18 15 16 15 21 2 38 -38 51 -12 108
103 227 47 48 81 87 76 87 -6 0 -15 -5 -20 -10 -6 -6 -34 -13 -62 -17 -44 -5
-52 -3 -52 10 0 16 56 87 69 87 3 0 17 -9 31 -19 21 -17 22 -21 10 -37 -14
-17 -14 -17 12 0 15 10 34 28 43 42 16 25 16 25 -25 37 -8 2 9 12 38 21 29 10
56 16 59 13 3 -3 -18 -30 -46 -60 l-52 -55 26 -47 c14 -27 25 -56 25 -66 0 -9
12 -31 26 -48 22 -26 29 -29 46 -20 11 6 22 8 25 5 15 -15 123 76 123 104 0 5
-37 46 -82 90 -77 76 -81 82 -64 98 14 14 38 17 145 18 70 1 133 4 140 8 19
12 23 2 12 -27 -10 -25 -8 -27 24 -33 19 -3 46 -3 60 0 15 4 25 2 25 -4 0 -13
79 -2 98 13 8 7 12 24 10 43 -2 18 -1 31 3 28 12 -7 41 81 37 112 -3 26 -10
31 -73 53 -49 16 -95 23 -156 25 l-87 1 14 28 c10 18 13 40 8 65 -11 59 -21
72 -57 72 -30 0 -34 4 -50 51 -23 63 -90 133 -136 142 -83 17 -182 -1 -243
-44 -30 -22 -52 -25 -24 -4 18 13 18 15 2 21 -9 4 -35 4 -57 1 l-41 -5 4 34
c2 19 2 34 -2 34 -3 0 -19 -20 -36 -43z m532 -180 c8 -21 16 -61 20 -88 6 -41
4 -49 -10 -49 -18 0 -22 -15 -6 -25 19 -12 10 -23 -23 -29 -19 -3 -71 -24
-116 -46 -92 -45 -101 -47 -101 -24 0 12 -6 15 -22 10 -72 -22 -96 -19 -128
12 -102 103 81 281 200 194 17 -13 33 -22 34 -20 1 1 8 18 16 36 17 44 57 74
94 70 24 -2 31 -10 42 -41z m62 -97 c2 -18 -1 -37 -7 -43 -8 -8 -11 -2 -11 20
0 17 -3 39 -7 49 -4 12 -2 15 8 12 8 -2 15 -19 17 -38z m288 -135 c32 -13 32
-14 22 -55 -9 -36 -12 -39 -27 -27 -9 8 -27 20 -39 27 l-24 12 21 -29 c28 -37
39 -102 20 -114 -26 -16 -37 -9 -44 28 -7 37 -31 93 -40 93 -3 0 -2 -19 1 -42
6 -50 -2 -65 -35 -69 -20 -4 -24 1 -26 29 -3 33 -20 62 -37 62 -6 0 -8 -6 -5
-14 8 -21 -18 -38 -50 -33 -27 4 -27 4 5 6 20 0 32 6 32 15 0 20 -12 26 -55
30 -59 5 -65 23 -11 31 l47 7 -16 25 c-9 14 -15 27 -13 29 3 2 25 4 50 5 32 2
45 6 41 15 -5 14 129 -8 183 -31z m-961 -230 c0 -46 13 -60 36 -39 10 9 19 12
19 6 0 -6 -4 -14 -10 -17 -6 -3 -10 -28 -10 -56 0 -27 -4 -49 -8 -49 -4 0 -23
16 -42 35 -19 19 -37 35 -41 35 -4 0 11 -18 33 -40 32 -31 47 -39 69 -36 16 2
26 -1 23 -5 -3 -5 -20 -9 -39 -9 -26 0 -38 7 -55 30 -12 16 -36 33 -53 38 -30
8 -37 29 -10 26 7 -1 10 2 7 7 -3 5 0 9 7 9 7 0 5 9 -6 26 -9 14 -13 29 -9 32
4 4 9 2 11 -4 2 -6 10 -20 18 -30 21 -30 28 -10 8 25 -16 28 -16 33 -3 41 29
19 55 7 55 -25z m496 -42 c17 -19 19 -24 7 -20 -13 5 -16 0 -15 -20 1 -14 -4
-28 -12 -31 -11 -3 -12 2 -7 23 4 15 2 33 -4 41 -7 7 -9 18 -5 24 8 14 8 14
36 -17z m-591 -8 c11 -13 10 -14 -4 -9 -9 3 -16 10 -16 15 0 13 6 11 20 -6z
m540 -9 c0 -2 -8 -10 -17 -17 -16 -13 -17 -12 -4 4 13 16 21 21 21 13z m117
-38 c25 -24 29 -48 11 -66 -19 -19 -66 31 -60 63 5 31 19 31 49 3z m-162 -17
c0 -16 -3 -27 -7 -24 -13 7 -7 53 6 53 1 0 1 -13 1 -29z m103 -79 c-12 -15
-11 -16 5 -3 9 8 21 11 25 7 4 -4 -2 -14 -13 -22 -17 -13 -22 -12 -49 15 -19
19 -27 35 -22 46 5 15 9 14 36 -5 27 -19 29 -24 18 -38z m-93 18 c-3 -5 4 -19
15 -30 12 -12 20 -24 17 -26 -8 -8 -47 47 -41 57 3 5 7 9 10 9 3 0 3 -4 -1
-10z m-287 -154 c0 -22 1 -52 3 -66 3 -18 -1 -25 -15 -28 -10 -2 -23 2 -27 10
-8 11 -10 11 -18 -1 -6 -10 -13 -11 -27 -2 -11 6 -14 11 -8 11 6 0 14 20 16
45 6 53 18 70 51 71 22 2 24 -2 25 -40z m-112 -40 c0 -14 -5 -21 -9 -17 -4 4
-5 15 -1 24 9 24 12 21 10 -7z"/>
<path d="M716 891 c-3 -5 4 -11 15 -14 27 -7 22 -43 -6 -39 -16 3 -17 2 -6
-12 31 -37 66 -3 49 46 -10 27 -40 39 -52 19z"/>
<path d="M462 788 c-27 -27 -6 -68 34 -68 12 0 25 7 28 16 8 22 8 26 -3 20
-17 -11 -43 6 -38 25 6 22 -3 25 -21 7z"/>
<path d="M1090 706 c0 -3 9 -10 20 -16 11 -6 20 -8 20 -6 0 3 -9 10 -20 16
-11 6 -20 8 -20 6z"/>
<path d="M1081 554 c0 -11 3 -14 6 -6 3 7 2 16 -1 19 -3 4 -6 -2 -5 -13z"/>
<path d="M118 493 c6 -2 18 -2 25 0 6 3 1 5 -13 5 -14 0 -19 -2 -12 -5z"/>
<path d="M695 371 c-4 -7 -1 -10 7 -9 8 2 12 -4 10 -17 -3 -16 -1 -18 9 -7 11
10 10 15 -3 28 -11 11 -18 13 -23 5z"/>
<path d="M256 97 c3 -10 9 -15 12 -12 3 3 0 11 -7 18 -10 9 -11 8 -5 -6z"/>
</g>
</svg>
